<svg width="40" height="40" viewBox="0 0 40 40" fill="none" xmlns="http://www.w3.org/2000/svg">
<mask id="path-1-inside-1_30_28" fill="white">
<path d="M35.58 9.30959C35.58 8.0128 35.0648 6.76912 34.1478 5.85215C33.2309 4.93518 31.9872 4.42003 30.6904 4.42003L28.4679 4.42003C27.1768 4.4193 25.9384 3.90797 25.023 2.99762L23.4672 1.44185C23.0128 0.984896 22.4726 0.622273 21.8776 0.374828C21.2825 0.127384 20.6445 0 20 0C19.3556 0 18.7176 0.127384 18.1226 0.374828C17.5275 0.622273 16.9873 0.984896 16.5329 1.44185L14.9771 2.99762C14.0617 3.90797 12.8233 4.4193 11.5322 4.42003H9.3097C8.01291 4.42003 6.76923 4.93518 5.85225 5.85215C4.93528 6.76912 4.42014 8.0128 4.42014 9.30959V11.5321C4.4194 12.8232 3.90807 14.0616 2.99772 14.977L1.44195 16.5328C0.984997 16.9872 0.622379 17.5274 0.374935 18.1224C0.127487 18.7175 9.91821e-05 19.3555 9.91821e-05 20C9.91821e-05 20.6444 0.127487 21.2824 0.374935 21.8774C0.622379 22.4725 0.984997 23.0127 1.44195 23.4671L2.99772 25.0229C3.90807 25.9383 4.4194 27.1767 4.42014 28.4678L4.42014 30.6903C4.42014 31.9871 4.93528 33.2308 5.85225 34.1477C6.76923 35.0647 8.01291 35.5799 9.3097 35.5799L11.5322 35.5799C12.8233 35.5806 14.0617 36.0919 14.9771 37.0023L16.5329 38.5581C16.9873 39.015 17.5275 39.3776 18.1226 39.6251C18.7176 39.8725 19.3556 39.9999 20 39.9999C20.6445 39.9999 21.2825 39.8725 21.8776 39.6251C22.4726 39.3776 23.0128 39.015 23.4672 38.5581L25.023 37.0023C25.9384 36.0919 27.1768 35.5806 28.4679 35.5799H30.6904C31.9872 35.5799 33.2309 35.0647 34.1478 34.1477C35.0648 33.2308 35.58 31.9871 35.58 30.6903V28.4678C35.5807 27.1767 36.092 25.9383 37.0024 25.0229L38.5582 23.4671C39.0151 23.0127 39.3777 22.4725 39.6252 21.8774C39.8726 21.2824 40 20.6444 40 20C40 19.3555 39.8726 18.7175 39.6252 18.1224C39.3777 17.5274 39.0151 16.9872 38.5582 16.5328L37.0024 14.977C36.092 14.0616 35.5807 12.8232 35.58 11.5321V9.30959Z"/>
</mask>
<path d="M35.58 9.30959C35.58 8.0128 35.0648 6.76912 34.1478 5.85215C33.2309 4.93518 31.9872 4.42003 30.6904 4.42003L28.4679 4.42003C27.1768 4.4193 25.9384 3.90797 25.023 2.99762L23.4672 1.44185C23.0128 0.984896 22.4726 0.622273 21.8776 0.374828C21.2825 0.127384 20.6445 0 20 0C19.3556 0 18.7176 0.127384 18.1226 0.374828C17.5275 0.622273 16.9873 0.984896 16.5329 1.44185L14.9771 2.99762C14.0617 3.90797 12.8233 4.4193 11.5322 4.42003H9.3097C8.01291 4.42003 6.76923 4.93518 5.85225 5.85215C4.93528 6.76912 4.42014 8.0128 4.42014 9.30959V11.5321C4.4194 12.8232 3.90807 14.0616 2.99772 14.977L1.44195 16.5328C0.984997 16.9872 0.622379 17.5274 0.374935 18.1224C0.127487 18.7175 9.91821e-05 19.3555 9.91821e-05 20C9.91821e-05 20.6444 0.127487 21.2824 0.374935 21.8774C0.622379 22.4725 0.984997 23.0127 1.44195 23.4671L2.99772 25.0229C3.90807 25.9383 4.4194 27.1767 4.42014 28.4678L4.42014 30.6903C4.42014 31.9871 4.93528 33.2308 5.85225 34.1477C6.76923 35.0647 8.01291 35.5799 9.3097 35.5799L11.5322 35.5799C12.8233 35.5806 14.0617 36.0919 14.9771 37.0023L16.5329 38.5581C16.9873 39.015 17.5275 39.3776 18.1226 39.6251C18.7176 39.8725 19.3556 39.9999 20 39.9999C20.6445 39.9999 21.2825 39.8725 21.8776 39.6251C22.4726 39.3776 23.0128 39.015 23.4672 38.5581L25.023 37.0023C25.9384 36.0919 27.1768 35.5806 28.4679 35.5799H30.6904C31.9872 35.5799 33.2309 35.0647 34.1478 34.1477C35.0648 33.2308 35.58 31.9871 35.58 30.6903V28.4678C35.5807 27.1767 36.092 25.9383 37.0024 25.0229L38.5582 23.4671C39.0151 23.0127 39.3777 22.4725 39.6252 21.8774C39.8726 21.2824 40 20.6444 40 20C40 19.3555 39.8726 18.7175 39.6252 18.1224C39.3777 17.5274 39.0151 16.9872 38.5582 16.5328L37.0024 14.977C36.092 14.0616 35.5807 12.8232 35.58 11.5321V9.30959Z" fill="#CDD6F9"/>
<path d="M38.58 9.30959C38.58 10.9664 37.2368 12.3096 35.58 12.3096C33.9231 12.3096 32.58 10.9664 32.58 9.30959L38.58 9.30959ZM30.6904 4.42003V1.42003V4.42003ZM28.4679 4.42003V7.42003L28.4662 7.42003L28.4679 4.42003ZM25.023 2.99762L22.9076 5.1249L22.9016 5.11894L25.023 2.99762ZM23.4672 1.44185L21.3459 3.56318L21.3399 3.5572L23.4672 1.44185ZM20 0V-3V0ZM16.5329 1.44185L18.6602 3.55721L18.6542 3.56317L16.5329 1.44185ZM14.9771 2.99762L17.0985 5.11895L17.0925 5.12489L14.9771 2.99762ZM11.5322 4.42003L11.5339 7.42003H11.5322V4.42003ZM9.3097 4.42003V1.42003V4.42003ZM4.42014 11.5321H7.42014V11.5338L4.42014 11.5321ZM2.99772 14.977L5.125 17.0924L5.11904 17.0984L2.99772 14.977ZM1.44195 16.5328L3.56327 18.6541L3.5573 18.6601L1.44195 16.5328ZM1.44195 23.4671L3.55731 21.3398L3.56327 21.3458L1.44195 23.4671ZM2.99772 25.0229L5.11905 22.9015L5.12499 22.9075L2.99772 25.0229ZM4.42014 28.4678L7.42014 28.4661V28.4678H4.42014ZM11.5322 35.5799V32.5799H11.5339L11.5322 35.5799ZM14.9771 37.0023L17.0925 34.875L17.0985 34.881L14.9771 37.0023ZM16.5329 38.5581L18.6542 36.4367L18.6602 36.4427L16.5329 38.5581ZM23.4672 38.5581L21.3399 36.4427L21.3459 36.4367L23.4672 38.5581ZM25.023 37.0023L22.9016 34.881L22.9076 34.875L25.023 37.0023ZM28.4679 35.5799L28.4662 32.5799H28.4679V35.5799ZM35.58 30.6903H38.58H35.58ZM35.58 28.4678H32.58L32.58 28.4661L35.58 28.4678ZM37.0024 25.0229L34.8751 22.9075L34.8811 22.9015L37.0024 25.0229ZM38.5582 23.4671L36.4368 21.3458L36.4428 21.3398L38.5582 23.4671ZM40 20H43H40ZM38.5582 16.5328L36.4428 18.6601L36.4368 18.6541L38.5582 16.5328ZM37.0024 14.977L34.8811 17.0984L34.8751 17.0924L37.0024 14.977ZM35.58 11.5321L32.58 11.5338V11.5321L35.58 11.5321ZM32.58 9.30959C32.58 7.65274 33.9231 6.30959 35.58 6.30959C37.2368 6.30959 38.58 7.65274 38.58 9.30959L32.58 9.30959ZM32.58 9.30959C32.58 8.80845 32.3809 8.32784 32.0265 7.97347L36.2692 3.73083C37.7487 5.21041 38.58 7.21715 38.58 9.30959L32.58 9.30959ZM32.0265 7.97347C31.6722 7.61911 31.1915 7.42003 30.6904 7.42003V1.42003C32.7829 1.42003 34.7896 2.25125 36.2692 3.73083L32.0265 7.97347ZM30.6904 7.42003L28.4679 7.42003V1.42003L30.6904 1.42003V7.42003ZM28.4662 7.42003C26.383 7.41884 24.3848 6.59379 22.9076 5.12489L27.1383 0.870344C27.4921 1.22215 27.9707 1.41975 28.4696 1.42003L28.4662 7.42003ZM22.9016 5.11894L21.3459 3.56317L25.5885 -0.679472L27.1443 0.876297L22.9016 5.11894ZM21.3399 3.5572C21.1643 3.38061 20.9555 3.24048 20.7256 3.14485L23.0295 -2.39519C23.9896 -1.99593 24.8613 -1.41082 25.5945 -0.673504L21.3399 3.5572ZM20.7256 3.14485C20.4957 3.04923 20.2491 3 20 3V-3C21.0399 -3 22.0694 -2.79446 23.0295 -2.39519L20.7256 3.14485ZM20 3C19.751 3 19.5044 3.04923 19.2745 3.14485L16.9706 -2.39519C17.9307 -2.79446 18.9602 -3 20 -3V3ZM19.2745 3.14485C19.0446 3.24048 18.8358 3.38061 18.6602 3.5572L14.4056 -0.673504C15.1388 -1.41082 16.0105 -1.99593 16.9706 -2.39519L19.2745 3.14485ZM18.6542 3.56317L17.0985 5.11894L12.8558 0.876295L14.4116 -0.679474L18.6542 3.56317ZM17.0925 5.12489C15.6153 6.59379 13.6171 7.41884 11.5339 7.42003L11.5305 1.42003C12.0294 1.41975 12.508 1.22215 12.8618 0.870344L17.0925 5.12489ZM11.5322 7.42003H9.3097V1.42003L11.5322 1.42003V7.42003ZM9.3097 7.42003C8.80855 7.42003 8.32794 7.61911 7.97358 7.97347L3.73093 3.73083C5.21051 2.25125 7.21725 1.42003 9.3097 1.42003V7.42003ZM7.97358 7.97347C7.61921 8.32784 7.42014 8.80845 7.42014 9.30959L1.42014 9.30959C1.42014 7.21715 2.25135 5.21041 3.73093 3.73083L7.97358 7.97347ZM7.42014 9.30959V11.5321L1.42014 11.5321V9.30959L7.42014 9.30959ZM7.42014 11.5338C7.41895 13.617 6.59389 15.6152 5.12499 17.0924L0.870449 12.8617C1.22225 12.5079 1.41985 12.0293 1.42014 11.5304L7.42014 11.5338ZM5.11904 17.0984L3.56327 18.6541L-0.679371 14.4115L0.8764 12.8557L5.11904 17.0984ZM3.5573 18.6601C3.38072 18.8357 3.24059 19.0444 3.14495 19.2744L-2.39509 16.9705C-1.99583 16.0104 -1.41072 15.1387 -0.673401 14.4055L3.5573 18.6601ZM3.14495 19.2744C3.04933 19.5043 3.0001 19.7509 3.0001 20H-2.9999C-2.9999 18.9601 -2.79435 17.9306 -2.39509 16.9705L3.14495 19.2744ZM3.0001 20C3.0001 20.249 3.04933 20.4955 3.14495 20.7255L-2.39509 23.0294C-2.79435 22.0693 -2.9999 21.0398 -2.9999 20H3.0001ZM3.14495 20.7255C3.24059 20.9555 3.38072 21.1642 3.5573 21.3398L-0.673401 25.5944C-1.41072 24.8612 -1.99583 23.9895 -2.39509 23.0294L3.14495 20.7255ZM3.56327 21.3458L5.11904 22.9015L0.8764 27.1442L-0.679371 25.5884L3.56327 21.3458ZM5.12499 22.9075C6.59389 24.3847 7.41895 26.3829 7.42014 28.4661L1.42014 28.4695C1.41985 27.9706 1.22225 27.492 0.870449 27.1382L5.12499 22.9075ZM7.42014 28.4678L7.42014 30.6903H1.42014L1.42014 28.4678H7.42014ZM7.42014 30.6903C7.42014 31.1914 7.61921 31.6721 7.97358 32.0264L3.73093 36.2691C2.25135 34.7895 1.42014 32.7827 1.42014 30.6903H7.42014ZM7.97358 32.0264C8.32794 32.3808 8.80855 32.5799 9.3097 32.5799V38.5799C7.21725 38.5799 5.21051 37.7486 3.73093 36.2691L7.97358 32.0264ZM9.3097 32.5799L11.5322 32.5799V38.5799L9.3097 38.5799V32.5799ZM11.5339 32.5799C13.6171 32.5811 15.6153 33.4061 17.0925 34.875L12.8618 39.1296C12.508 38.7778 12.0294 38.5802 11.5305 38.5799L11.5339 32.5799ZM17.0985 34.881L18.6542 36.4367L14.4116 40.6794L12.8558 39.1236L17.0985 34.881ZM18.6602 36.4427C18.8358 36.6193 19.0445 36.7594 19.2745 36.855L16.9706 42.3951C16.0105 41.9958 15.1388 41.4107 14.4056 40.6734L18.6602 36.4427ZM19.2745 36.855C19.5045 36.9507 19.751 36.9999 20 36.9999V42.9999C18.9602 42.9999 17.9307 42.7943 16.9706 42.3951L19.2745 36.855ZM20 36.9999C20.2491 36.9999 20.4957 36.9507 20.7256 36.855L23.0295 42.3951C22.0694 42.7943 21.0399 42.9999 20 42.9999V36.9999ZM20.7256 36.855C20.9556 36.7594 21.1643 36.6193 21.3399 36.4427L25.5945 40.6734C24.8613 41.4107 23.9896 41.9958 23.0295 42.3951L20.7256 36.855ZM21.3459 36.4367L22.9016 34.881L27.1443 39.1236L25.5885 40.6794L21.3459 36.4367ZM22.9076 34.875C24.3848 33.4061 26.383 32.5811 28.4662 32.5799L28.4696 38.5799C27.9707 38.5802 27.4921 38.7778 27.1383 39.1296L22.9076 34.875ZM28.4679 32.5799H30.6904L30.6904 38.5799H28.4679L28.4679 32.5799ZM30.6904 32.5799C31.1915 32.5799 31.6722 32.3808 32.0265 32.0264L36.2692 36.2691C34.7896 37.7486 32.7829 38.5799 30.6904 38.5799L30.6904 32.5799ZM32.0265 32.0264C32.3809 31.6721 32.58 31.1914 32.58 30.6903H38.58C38.58 32.7827 37.7487 34.7895 36.2692 36.2691L32.0265 32.0264ZM32.58 30.6903V28.4678H38.58L38.58 30.6903H32.58ZM32.58 28.4661C32.5812 26.3829 33.4062 24.3847 34.8751 22.9075L39.1297 27.1382C38.7779 27.492 38.5803 27.9706 38.58 28.4695L32.58 28.4661ZM34.8811 22.9015L36.4368 21.3458L40.6795 25.5884L39.1237 27.1442L34.8811 22.9015ZM36.4428 21.3398C36.6194 21.1642 36.7595 20.9554 36.8551 20.7255L42.3952 23.0294C41.9959 23.9895 41.4108 24.8612 40.6735 25.5944L36.4428 21.3398ZM36.8551 20.7255C36.9508 20.4956 37 20.249 37 20H43C43 21.0398 42.7945 22.0693 42.3952 23.0294L36.8551 20.7255ZM37 20C37 19.7509 36.9508 19.5043 36.8551 19.2744L42.3952 16.9705C42.7945 17.9306 43 18.9601 43 20H37ZM36.8551 19.2744C36.7595 19.0445 36.6194 18.8357 36.4428 18.6601L40.6735 14.4055C41.4108 15.1387 41.9959 16.0104 42.3952 16.9705L36.8551 19.2744ZM36.4368 18.6541L34.8811 17.0984L39.1237 12.8557L40.6795 14.4115L36.4368 18.6541ZM34.8751 17.0924C33.4062 15.6152 32.5812 13.617 32.58 11.5338L38.58 11.5304C38.5803 12.0293 38.7779 12.5079 39.1297 12.8617L34.8751 17.0924ZM32.58 11.5321V9.30959L38.58 9.30959V11.5321L32.58 11.5321Z" fill="#0432DF" mask="url(#path-1-inside-1_30_28)"/>
</svg>
