<svg width="113" height="18" viewBox="0 0 113 18" fill="none" xmlns="http://www.w3.org/2000/svg">
<path d="M23.9007 0.650744L19.2207 17.4027H15.2607L12.1167 5.47474L8.82874 17.4027L4.89274 17.4267L0.380737 0.650744C0.380737 0.650744 2.6163 0.311868 3.98074 0.650744C9.03625 1.90635 1.72648 13.4865 6.93274 13.6587C12.1813 13.8324 5.24804 1.93198 10.3407 0.650744C11.7587 0.294014 12.668 0.289092 14.0847 0.650744C19.1286 1.93833 12.0959 13.6781 17.3007 13.5867C22.4837 13.4958 15.2486 1.9114 20.2767 0.650744C21.6495 0.306562 23.9007 0.650744 23.9007 0.650744Z" fill="white"/>
<path d="M24.7507 10.7067C24.7507 9.36274 25.0147 8.17074 25.5427 7.13074C26.0867 6.09074 26.8147 5.29074 27.7267 4.73074C28.6547 4.17074 29.6867 3.89074 30.8227 3.89074C31.8147 3.89074 32.6787 4.09074 33.4147 4.49074C34.1667 4.89074 34.7667 5.39474 35.2147 6.00274C35.2147 6.00274 34.8528 4.7527 35.2147 4.10674C35.8606 2.95384 38.5987 4.10674 38.5987 4.10674V17.4027H35.2147V15.4587C34.7827 16.0827 34.1827 16.6027 33.4147 17.0187C32.6627 17.4187 31.7907 17.6187 30.7987 17.6187C29.6787 17.6187 28.6547 17.3307 27.7267 16.7547C26.8147 16.1787 26.0867 15.3707 25.5427 14.3307C25.0147 13.2747 24.7507 12.0667 24.7507 10.7067ZM35.2147 10.7547C35.2147 10.7547 35.0547 9.24274 34.7347 8.66674C34.4147 8.07474 33.9827 7.62674 33.4387 7.32274C32.8947 7.00274 32.3107 6.84274 31.6867 6.84274C31.0627 6.84274 30.4867 6.99474 29.9587 7.29874C29.4307 7.60274 28.9987 8.05074 28.6627 8.64274C28.3427 9.21874 28.1827 10.7067 28.1827 10.7067C28.1827 10.7067 28.3427 12.2107 28.6627 12.8187C28.9987 13.4107 29.4307 13.8667 29.9587 14.1867C30.5027 14.5067 31.0787 14.6667 31.6867 14.6667C32.3107 14.6667 32.8947 14.5147 33.4387 14.2107C33.9827 13.8907 34.4147 13.4427 34.7347 12.8667C35.0547 12.2747 35.2147 10.7547 35.2147 10.7547Z" fill="white"/>
<path d="M46.9443 14.3067C51.1382 14.3067 46.2725 5.26156 50.3043 4.10674C51.6468 3.7222 53.8803 4.10674 53.8803 4.10674L48.9603 17.4027H44.8803L39.9843 4.10674C39.9843 4.10674 42.2334 3.71745 43.5843 4.10674C47.6142 5.26804 42.7504 14.3067 46.9443 14.3067Z" fill="white"/>
<path d="M67.6475 10.4667C67.6475 10.9467 67.6155 11.3787 67.5515 11.7627C67.4875 12.1467 57.7515 10.8027 57.8315 11.7627C57.9115 12.7227 58.2475 13.4747 58.8395 14.0187C59.4315 14.5627 60.1595 14.8347 61.0235 14.8347C62.2715 14.8347 63.1595 14.2987 63.6875 13.2267C64.2155 12.1547 67.3115 13.2267 67.3115 13.2267C66.9275 14.5067 66.1915 15.5627 65.1035 16.3947C64.0155 17.2107 62.6795 17.6187 61.0955 17.6187C59.8155 17.6187 58.6635 17.3387 57.6395 16.7787C56.6315 16.2027 55.8395 15.3947 55.2635 14.3547C54.7035 13.3147 54.4235 12.1147 54.4235 10.7547C54.4235 9.37874 54.7035 8.17074 55.2635 7.13074C55.8235 6.09074 56.6075 5.29074 57.6155 4.73074C58.6235 4.17074 59.7835 3.89074 61.0955 3.89074C62.3595 3.89074 63.4875 4.16274 64.4795 4.70674C65.4875 5.25074 66.2635 6.02674 66.8075 7.03474C67.3675 8.02674 67.6475 9.17074 67.6475 10.4667ZM64.1675 9.50674C64.1515 8.64274 63.8395 7.95474 63.2315 7.44274C62.6235 6.91474 61.8795 6.65074 60.9995 6.65074C60.1675 6.65074 59.4635 6.90674 58.8875 7.41874C58.3275 7.91474 57.9835 8.61074 57.8555 9.50674C57.8555 9.50674 64.1835 10.3707 64.1675 9.50674Z" fill="white"/>
<path d="M74.708 17.6187C73.62 17.6187 72.644 17.4267 71.78 17.0427C70.916 16.6427 70.228 16.1067 69.716 15.4347C69.22 14.7627 68.948 14.0187 68.9 13.2027C68.852 12.3867 72.22 12.6907 72.284 13.2027C72.348 13.7147 72.596 14.1387 73.028 14.4747C73.476 14.8107 74.684 14.9787 74.684 14.9787C74.684 14.9787 75.82 14.8507 76.172 14.5947C76.54 14.3387 76.724 14.0107 76.724 13.6107C76.724 13.1787 76.052 12.6507 76.052 12.6507L73.964 11.9307C73.964 11.9307 72.156 11.4427 71.516 11.1867C70.892 10.9307 70.348 10.5387 69.884 10.0107C69.436 9.48274 69.212 8.77074 69.212 7.87474C69.212 7.13874 69.42 6.46674 69.836 5.85874C70.268 5.25074 70.876 4.77074 71.66 4.41874C72.46 4.06674 73.396 3.89074 74.468 3.89074C76.052 3.89074 77.316 4.29074 78.26 5.09074C79.204 5.87474 79.724 6.93874 79.82 8.28274C79.916 9.62674 76.652 8.81074 76.604 8.28274C76.556 7.75474 76.332 7.33874 75.932 7.03474C75.548 6.71474 74.372 6.55474 74.372 6.55474C74.372 6.55474 73.292 6.66674 72.956 6.89074C72.636 7.11474 72.476 7.42674 72.476 7.82674C72.476 8.27474 72.7 8.61874 73.148 8.85874C73.596 9.08274 75.236 9.55474 75.236 9.55474C75.236 9.55474 76.988 10.0427 77.612 10.2987C78.236 10.5547 78.772 10.9547 79.22 11.4987C79.684 12.0267 79.924 12.7307 79.94 13.6107C79.94 14.3787 79.724 15.0667 79.292 15.6747C78.876 16.2827 78.268 16.7627 77.468 17.1147C76.684 17.4507 75.764 17.6187 74.708 17.6187Z" fill="white"/>
<path d="M81.4021 9.00274C81.4021 7.22511 81.7701 5.88274 82.5061 4.58674C83.2581 3.27474 84.2741 2.25874 85.5541 1.53874C86.8501 0.802744 88.2981 0.434743 89.8981 0.434743C91.7701 0.434743 93.4101 0.914744 94.8181 1.87474C96.2261 2.83474 97.2101 4.16274 97.7701 5.85874C98.3301 7.55474 94.2901 6.65874 93.9061 5.85874C93.5221 5.05874 92.9781 4.45874 92.2741 4.05874C91.5861 3.65874 90.7861 3.45874 89.8741 3.45874C88.8981 3.45874 88.0261 3.69074 87.2581 4.15474C86.5061 4.60274 85.9141 5.24274 85.4821 6.07474C85.0661 6.90674 84.8581 9.00274 84.8581 9.00274C84.8581 9.00274 85.0661 11.0827 85.4821 11.9307C85.9141 12.7627 86.5061 13.4107 87.2581 13.8747C88.0261 14.3227 88.8981 14.5467 89.8741 14.5467C90.7861 14.5467 91.5861 14.3467 92.2741 13.9467C92.9781 13.5307 93.5221 12.9227 93.9061 12.1227C94.2901 11.3227 98.3301 10.4107 97.7701 12.1227C97.2101 13.8347 96.2261 15.1707 94.8181 16.1307C93.4261 17.0747 91.7861 17.5467 89.8981 17.5467C88.2981 17.5467 86.8501 17.1867 85.5541 16.4667C84.2741 15.7307 83.2581 14.7147 82.5061 13.4187C81.7701 12.1227 81.4021 10.7804 81.4021 9.00274Z" fill="white"/>
<path d="M106.064 17.6187C104.784 17.6187 103.632 17.3387 102.608 16.7787C101.584 16.2027 100.776 15.3947 100.184 14.3547C99.608 13.3147 99.32 12.1147 99.32 10.7547C99.32 9.39474 99.616 8.19474 100.208 7.15474C100.816 6.11474 101.64 5.31474 102.68 4.75474C103.72 4.17874 104.88 3.89074 106.16 3.89074C107.44 3.89074 108.6 4.17874 109.64 4.75474C110.68 5.31474 111.496 6.11474 112.088 7.15474C112.696 8.19474 113 9.39474 113 10.7547C113 12.1147 112.688 13.3147 112.064 14.3547C111.456 15.3947 110.624 16.2027 109.568 16.7787C108.528 17.3387 107.36 17.6187 106.064 17.6187ZM106.064 14.6907C106.064 14.6907 107.24 14.5467 107.768 14.2587C108.312 13.9547 108.744 13.5067 109.064 12.9147C109.384 12.3227 109.544 10.7547 109.544 10.7547C109.544 10.7547 109.208 8.52274 108.536 7.85074C107.88 7.16274 106.112 6.81874 106.112 6.81874C106.112 6.81874 104.344 7.16274 103.688 7.85074C103.048 8.52274 102.728 10.7547 102.728 10.7547C102.728 10.7547 103.04 12.9947 103.664 13.6827C104.304 14.3547 106.064 14.6907 106.064 14.6907Z" fill="white"/>
</svg>
